<svg width="143" height="86" viewBox="0 0 143 86" fill="none" xmlns="http://www.w3.org/2000/svg">
<path d="M68.792 3.66587C68.1902 5.74503 65.7285 13.8428 63.3216 21.7764L59 36.1663L60.477 38.8473C62.1181 42.0208 61.2976 41.9113 73.9888 40.8718L81.702 40.2152L83.5619 37.8077C87.3365 32.8287 93.518 31.625 98.6054 34.7437C102.271 37.0417 103.912 40.2152 103.638 44.6471C103.365 49.0789 101.505 51.9788 97.7302 53.8938C96.1985 54.6598 94.995 55.3164 94.995 55.4258C94.9403 55.4805 93.518 61.335 91.7675 68.3932C90.017 75.4514 88.7588 81.47 88.9776 81.7435C89.2511 82.0171 95.6514 82.0718 103.31 81.9077C113.922 81.6888 117.916 81.4152 120.432 80.7039C134.382 76.8192 144.009 63.1953 142.915 49.0242C141.876 36.4946 134.436 26.7007 122.402 21.9952C119.338 20.8462 117.861 20.6274 112.719 20.5727L106.647 20.518L105.334 18.3294C103.201 14.8276 96.6361 8.59018 92.4786 6.12803C87.5006 3.17344 81.702 1.20372 75.8487 0.547145C73.2777 0.273573 70.9254 1.28057e-08 70.5425 1.28057e-08C70.1595 1.28057e-08 69.3937 1.64144 68.792 3.66587Z" fill="#014AD4"/>
<path d="M54.8045 4.4788C47.5127 7.85741 41.7012 12.7074 37.9731 18.5382L36.5477 20.7724L30.4621 20.8269C25.1988 20.8814 23.7734 21.0994 20.4839 22.3527C8.69646 26.8212 0.966102 37.0115 0.0888984 49.1092C-0.294878 54.94 0.5275 59.0815 3.26876 64.5854C7.65478 73.4134 15.6593 79.4622 25.4181 81.2604C28.9818 81.9144 34.4095 82.0779 54.4207 81.9689L79.0372 81.8054L79.7499 78.8082C80.1885 77.1734 81.7236 70.6887 83.2587 64.4764L86 53.1417L84.4649 51.5069L82.9298 49.8721L71.1424 50.7985C61.6576 51.5069 59.1905 51.8883 58.3133 52.6512C53.8176 56.5748 47.1838 56.2478 42.9074 51.8338C39.3437 48.1828 38.7407 43.3873 41.2626 38.5919C42.414 36.4121 45.9228 33.7964 48.3899 33.3605C49.925 33.088 50.4184 32.6521 50.857 31.2352C51.5149 29.11 54.4755 19.3011 57.2168 10.2551C58.3133 6.54956 59.1356 3.33443 59.026 3.06196C58.9163 2.7895 57.0523 3.44342 54.8045 4.4788Z" fill="#014AD4"/>
</svg>
