<svg width="560" height="560" viewBox="0 0 560 560" fill="none" xmlns="http://www.w3.org/2000/svg">
<path d="M348.917 348.735L490 490M396.667 233.333C396.667 323.54 323.54 396.667 233.333 396.667C143.127 396.667 70 323.54 70 233.333C70 143.127 143.127 70 233.333 70C323.54 70 396.667 143.127 396.667 233.333Z" stroke="#004AD4" stroke-width="35" stroke-linecap="round" stroke-linejoin="round"/>
<path d="M181.763 302.3V152.894H243.233C256.466 152.894 267.778 155.028 277.169 159.297C286.703 163.566 294.031 169.684 299.154 177.653C304.276 185.621 306.837 195.083 306.837 206.04C306.837 216.996 304.276 226.459 299.154 234.427C294.031 242.395 286.703 248.514 277.169 252.783C267.778 257.052 256.466 259.186 243.233 259.186H197.13L209.51 246.166V302.3H181.763ZM209.51 249.154L197.13 235.708H241.952C254.189 235.708 263.367 233.147 269.486 228.024C275.747 222.759 278.877 215.431 278.877 206.04C278.877 196.506 275.747 189.178 269.486 184.056C263.367 178.933 254.189 176.372 241.952 176.372H197.13L209.51 162.712V249.154Z" fill="#004AD4"/>
</svg>
