<svg width="386" height="153" viewBox="0 0 386 153" fill="none" xmlns="http://www.w3.org/2000/svg">
<path d="M189.792 3.66587C189.19 5.74503 186.729 13.8428 184.322 21.7764L180 36.1663L181.477 38.8473C183.118 42.0208 182.298 41.9113 194.989 40.8718L202.702 40.2152L204.562 37.8077C208.336 32.8287 214.518 31.625 219.605 34.7437C223.271 37.0417 224.912 40.2152 224.638 44.6471C224.365 49.0789 222.505 51.9788 218.73 53.8938C217.198 54.6598 215.995 55.3164 215.995 55.4258C215.94 55.4805 214.518 61.335 212.767 68.3932C211.017 75.4514 209.759 81.47 209.978 81.7435C210.251 82.0171 216.651 82.0718 224.31 81.9077C234.922 81.6888 238.916 81.4152 241.432 80.7039C255.382 76.8192 265.009 63.1953 263.915 49.0242C262.876 36.4946 255.436 26.7007 243.402 21.9952C240.338 20.8462 238.861 20.6274 233.719 20.5727L227.647 20.518L226.334 18.3294C224.201 14.8276 217.636 8.59018 213.479 6.12803C208.501 3.17344 202.702 1.20372 196.849 0.547145C194.278 0.273573 191.925 1.28057e-08 191.542 1.28057e-08C191.16 1.28057e-08 190.394 1.64144 189.792 3.66587Z" fill="#014AD4"/>
<path d="M175.804 4.4788C168.513 7.85741 162.701 12.7074 158.973 18.5382L157.548 20.7724L151.462 20.8269C146.199 20.8814 144.773 21.0994 141.484 22.3527C129.696 26.8212 121.966 37.0115 121.089 49.1092C120.705 54.94 121.528 59.0815 124.269 64.5854C128.655 73.4134 136.659 79.4622 146.418 81.2604C149.982 81.9144 155.409 82.0779 175.421 81.9689L200.037 81.8054L200.75 78.8082C201.189 77.1734 202.724 70.6887 204.259 64.4764L207 53.1417L205.465 51.5069L203.93 49.8721L192.142 50.7985C182.658 51.5069 180.19 51.8883 179.313 52.6512C174.818 56.5748 168.184 56.2478 163.907 51.8338C160.344 48.1828 159.741 43.3873 162.263 38.5919C163.414 36.4121 166.923 33.7964 169.39 33.3605C170.925 33.088 171.418 32.6521 171.857 31.2352C172.515 29.11 175.476 19.3011 178.217 10.2551C179.313 6.54956 180.136 3.33443 180.026 3.06196C179.916 2.7895 178.052 3.44342 175.804 4.4788Z" fill="#014AD4"/>
<path d="M7.922 115.554V123H2.414V100.322H12.614C15.266 100.322 17.3513 100.923 18.87 102.124C20.3887 103.325 21.148 105.184 21.148 107.7C21.148 110.216 20.3887 112.154 18.87 113.514C17.3513 114.874 15.266 115.554 12.614 115.554H7.922ZM7.922 111.304H11.934C12.5233 111.304 13.022 111.225 13.43 111.066C13.8607 110.907 14.2007 110.681 14.45 110.386C14.6993 110.091 14.8807 109.751 14.994 109.366C15.13 108.958 15.198 108.527 15.198 108.074C15.198 107.53 15.13 107.054 14.994 106.646C14.8807 106.238 14.6993 105.875 14.45 105.558C14.2007 105.241 13.8607 105.003 13.43 104.844C13.022 104.685 12.5233 104.606 11.934 104.606H7.922V111.304ZM29.8541 123H24.8221V99.302H29.8541V123ZM42.4434 123.51C40.8568 123.51 39.4514 123.261 38.2274 122.762C37.0034 122.263 36.0514 121.504 35.3714 120.484C34.6914 119.441 34.3514 118.093 34.3514 116.438V105.796H39.4174V116.03C39.4174 117.118 39.6554 117.934 40.1314 118.478C40.6301 118.999 41.4121 119.26 42.4774 119.26C43.5654 119.26 44.3474 118.999 44.8234 118.478C45.2994 117.934 45.5374 117.118 45.5374 116.03V105.796H50.2974V116.438C50.2974 118.886 49.5948 120.677 48.1894 121.81C46.7841 122.943 44.8688 123.51 42.4434 123.51ZM61.8093 123.68C59.8147 123.68 58.33 123.215 57.3553 122.286C56.3807 121.334 55.8933 119.997 55.8933 118.274V109.672H53.3773V105.796H55.8933V101.07H61.1973V105.796H64.9713V109.672H61.1973V117.628C61.1973 118.217 61.322 118.659 61.5713 118.954C61.8207 119.226 62.24 119.362 62.8293 119.362C63.1693 119.362 63.5433 119.294 63.9513 119.158C64.3593 119.022 64.6993 118.852 64.9713 118.648V123C64.4953 123.249 63.974 123.419 63.4073 123.51C62.8633 123.623 62.3307 123.68 61.8093 123.68ZM75.4463 123.51C74.4036 123.51 73.4176 123.408 72.4883 123.204C71.5816 123.023 70.7769 122.717 70.0743 122.286C69.3943 121.833 68.8616 121.232 68.4763 120.484C68.0909 119.713 67.8983 118.761 67.8983 117.628C67.8983 116.563 68.1136 115.633 68.5443 114.84C68.9976 114.047 69.6776 113.435 70.5843 113.004C71.4909 112.573 72.6356 112.358 74.0183 112.358C74.7889 112.358 75.5369 112.437 76.2623 112.596C76.9876 112.755 77.6336 112.97 78.2003 113.242C78.7896 113.514 79.2543 113.809 79.5943 114.126L79.7983 116.574C79.3449 116.302 78.8009 116.087 78.1663 115.928C77.5316 115.769 76.8516 115.69 76.1263 115.69C75.0156 115.69 74.1996 115.86 73.6783 116.2C73.1796 116.517 72.9303 117.027 72.9303 117.73C72.9303 118.161 73.0549 118.546 73.3043 118.886C73.5536 119.226 73.8823 119.487 74.2903 119.668C74.7209 119.849 75.1629 119.94 75.6163 119.94C76.7723 119.94 77.5769 119.861 78.0303 119.702C78.5063 119.543 78.7443 119.226 78.7443 118.75V112.426C78.7443 111.383 78.4043 110.635 77.7243 110.182C77.0669 109.706 76.1263 109.468 74.9023 109.468C73.9049 109.468 72.8963 109.649 71.8763 110.012C70.8789 110.352 70.0629 110.771 69.4283 111.27V106.782C70.0176 106.419 70.9243 106.079 72.1483 105.762C73.3949 105.445 74.7889 105.286 76.3303 105.286C76.8743 105.286 77.4749 105.331 78.1323 105.422C78.7896 105.513 79.4469 105.683 80.1043 105.932C80.7616 106.159 81.3623 106.499 81.9063 106.952C82.4729 107.405 82.9263 107.983 83.2663 108.686C83.6063 109.389 83.7763 110.261 83.7763 111.304L83.7423 119.43C83.7423 120.405 83.4136 121.198 82.7563 121.81C82.0989 122.399 81.1469 122.83 79.9003 123.102C78.6763 123.374 77.1916 123.51 75.4463 123.51ZM88.2733 123V107.598C88.5906 107.326 89.1573 107.02 89.9733 106.68C90.7893 106.317 91.7186 106 92.7613 105.728C93.8266 105.433 94.892 105.286 95.9573 105.286C97.0226 105.286 97.8613 105.365 98.4733 105.524C99.0853 105.683 99.55 105.887 99.8673 106.136V109.842C99.482 109.751 98.9946 109.683 98.4053 109.638C97.816 109.593 97.204 109.57 96.5693 109.57C95.9346 109.547 95.334 109.547 94.7673 109.57C94.2006 109.593 93.7246 109.638 93.3393 109.706V123H88.2733ZM110.277 123.442C109.053 123.442 107.897 123.261 106.809 122.898C105.721 122.535 104.757 121.991 103.919 121.266C103.08 120.541 102.423 119.623 101.947 118.512C101.471 117.401 101.233 116.109 101.233 114.636C101.233 113.072 101.459 111.712 101.913 110.556C102.366 109.377 102.989 108.403 103.783 107.632C104.599 106.861 105.551 106.283 106.639 105.898C107.727 105.513 108.928 105.32 110.243 105.32C111.172 105.32 112.124 105.422 113.099 105.626C114.096 105.807 114.969 106.068 115.717 106.408V110.76C114.923 110.397 114.141 110.103 113.371 109.876C112.623 109.627 111.852 109.502 111.059 109.502C109.631 109.502 108.475 109.865 107.591 110.59C106.729 111.293 106.299 112.449 106.299 114.058C106.299 115.758 106.684 117.039 107.455 117.9C108.225 118.761 109.506 119.192 111.297 119.192C112.135 119.192 112.94 119.045 113.711 118.75C114.504 118.455 115.184 118.149 115.751 117.832V122.15C114.957 122.558 114.13 122.875 113.269 123.102C112.407 123.329 111.41 123.442 110.277 123.442ZM119.285 123V98.996H124.385V109.196L122.243 108.04C123.15 107.247 124.215 106.601 125.439 106.102C126.686 105.581 127.955 105.32 129.247 105.32C130.494 105.32 131.593 105.524 132.545 105.932C133.497 106.34 134.234 107.009 134.755 107.938C135.299 108.845 135.571 110.103 135.571 111.712V123H130.505V112.766C130.505 111.633 130.222 110.817 129.655 110.318C129.111 109.797 128.306 109.536 127.241 109.536C126.697 109.536 126.153 109.615 125.609 109.774C125.088 109.91 124.68 110.091 124.385 110.318L124.317 123H119.285ZM149.637 123V100.322H158.749C162.602 100.322 165.435 101.285 167.249 103.212C169.062 105.116 169.969 107.938 169.969 111.678C169.969 115.395 169.062 118.217 167.249 120.144C165.435 122.048 162.602 123 158.749 123H149.637ZM155.145 118.75H158.103C160.143 118.75 161.684 118.183 162.727 117.05C163.792 115.917 164.325 114.126 164.325 111.678C164.325 109.185 163.792 107.383 162.727 106.272C161.684 105.139 160.143 104.572 158.103 104.572H155.145V118.75ZM180.269 123.51C179.226 123.51 178.24 123.408 177.311 123.204C176.404 123.023 175.599 122.717 174.897 122.286C174.217 121.833 173.684 121.232 173.299 120.484C172.913 119.713 172.721 118.761 172.721 117.628C172.721 116.563 172.936 115.633 173.367 114.84C173.82 114.047 174.5 113.435 175.407 113.004C176.313 112.573 177.458 112.358 178.841 112.358C179.611 112.358 180.359 112.437 181.085 112.596C181.81 112.755 182.456 112.97 183.023 113.242C183.612 113.514 184.077 113.809 184.417 114.126L184.621 116.574C184.167 116.302 183.623 116.087 182.989 115.928C182.354 115.769 181.674 115.69 180.949 115.69C179.838 115.69 179.022 115.86 178.501 116.2C178.002 116.517 177.753 117.027 177.753 117.73C177.753 118.161 177.877 118.546 178.127 118.886C178.376 119.226 178.705 119.487 179.113 119.668C179.543 119.849 179.985 119.94 180.439 119.94C181.595 119.94 182.399 119.861 182.853 119.702C183.329 119.543 183.567 119.226 183.567 118.75V112.426C183.567 111.383 183.227 110.635 182.547 110.182C181.889 109.706 180.949 109.468 179.725 109.468C178.727 109.468 177.719 109.649 176.699 110.012C175.701 110.352 174.885 110.771 174.251 111.27V106.782C174.84 106.419 175.747 106.079 176.971 105.762C178.217 105.445 179.611 105.286 181.153 105.286C181.697 105.286 182.297 105.331 182.955 105.422C183.612 105.513 184.269 105.683 184.927 105.932C185.584 106.159 186.185 106.499 186.729 106.952C187.295 107.405 187.749 107.983 188.089 108.686C188.429 109.389 188.599 110.261 188.599 111.304L188.565 119.43C188.565 120.405 188.236 121.198 187.579 121.81C186.921 122.399 185.969 122.83 184.723 123.102C183.499 123.374 182.014 123.51 180.269 123.51ZM200.134 123.68C198.139 123.68 196.654 123.215 195.68 122.286C194.705 121.334 194.218 119.997 194.218 118.274V109.672H191.702V105.796H194.218V101.07H199.522V105.796H203.296V109.672H199.522V117.628C199.522 118.217 199.646 118.659 199.896 118.954C200.145 119.226 200.564 119.362 201.154 119.362C201.494 119.362 201.868 119.294 202.276 119.158C202.684 119.022 203.024 118.852 203.296 118.648V123C202.82 123.249 202.298 123.419 201.732 123.51C201.188 123.623 200.655 123.68 200.134 123.68ZM213.77 123.51C212.728 123.51 211.742 123.408 210.812 123.204C209.906 123.023 209.101 122.717 208.398 122.286C207.718 121.833 207.186 121.232 206.8 120.484C206.415 119.713 206.222 118.761 206.222 117.628C206.222 116.563 206.438 115.633 206.868 114.84C207.322 114.047 208.002 113.435 208.908 113.004C209.815 112.573 210.96 112.358 212.342 112.358C213.113 112.358 213.861 112.437 214.586 112.596C215.312 112.755 215.958 112.97 216.524 113.242C217.114 113.514 217.578 113.809 217.918 114.126L218.122 116.574C217.669 116.302 217.125 116.087 216.49 115.928C215.856 115.769 215.176 115.69 214.45 115.69C213.34 115.69 212.524 115.86 212.002 116.2C211.504 116.517 211.254 117.027 211.254 117.73C211.254 118.161 211.379 118.546 211.628 118.886C211.878 119.226 212.206 119.487 212.614 119.668C213.045 119.849 213.487 119.94 213.94 119.94C215.096 119.94 215.901 119.861 216.354 119.702C216.83 119.543 217.068 119.226 217.068 118.75V112.426C217.068 111.383 216.728 110.635 216.048 110.182C215.391 109.706 214.45 109.468 213.226 109.468C212.229 109.468 211.22 109.649 210.2 110.012C209.203 110.352 208.387 110.771 207.752 111.27V106.782C208.342 106.419 209.248 106.079 210.472 105.762C211.719 105.445 213.113 105.286 214.654 105.286C215.198 105.286 215.799 105.331 216.456 105.422C217.114 105.513 217.771 105.683 218.428 105.932C219.086 106.159 219.686 106.499 220.23 106.952C220.797 107.405 221.25 107.983 221.59 108.686C221.93 109.389 222.1 110.261 222.1 111.304L222.066 119.43C222.066 120.405 221.738 121.198 221.08 121.81C220.423 122.399 219.471 122.83 218.224 123.102C217 123.374 215.516 123.51 213.77 123.51ZM234.192 123L242.76 100.322H248.778L256.802 123H251.158L243.916 101.614L246.602 101.376L239.394 123H234.192ZM239.02 118.104L240.142 114.058H250.444L250.954 118.104H239.02ZM259.502 107.258C259.932 107.031 260.499 106.805 261.202 106.578C261.904 106.329 262.675 106.113 263.514 105.932C264.352 105.751 265.191 105.603 266.03 105.49C266.891 105.377 267.684 105.32 268.41 105.32C269.951 105.32 271.266 105.524 272.354 105.932C273.442 106.317 274.269 106.952 274.836 107.836C275.425 108.72 275.72 109.921 275.72 111.44V123H270.654V112.46C270.654 112.029 270.586 111.633 270.45 111.27C270.336 110.907 270.155 110.601 269.906 110.352C269.656 110.08 269.316 109.876 268.886 109.74C268.455 109.581 267.934 109.502 267.322 109.502C266.8 109.502 266.279 109.57 265.758 109.706C265.236 109.819 264.84 109.944 264.568 110.08V123H259.502V107.258ZM286.851 123.51C285.808 123.51 284.822 123.408 283.893 123.204C282.986 123.023 282.181 122.717 281.479 122.286C280.799 121.833 280.266 121.232 279.881 120.484C279.495 119.713 279.303 118.761 279.303 117.628C279.303 116.563 279.518 115.633 279.949 114.84C280.402 114.047 281.082 113.435 281.989 113.004C282.895 112.573 284.04 112.358 285.423 112.358C286.193 112.358 286.941 112.437 287.667 112.596C288.392 112.755 289.038 112.97 289.605 113.242C290.194 113.514 290.659 113.809 290.999 114.126L291.203 116.574C290.749 116.302 290.205 116.087 289.571 115.928C288.936 115.769 288.256 115.69 287.531 115.69C286.42 115.69 285.604 115.86 285.083 116.2C284.584 116.517 284.335 117.027 284.335 117.73C284.335 118.161 284.459 118.546 284.709 118.886C284.958 119.226 285.287 119.487 285.695 119.668C286.125 119.849 286.567 119.94 287.021 119.94C288.177 119.94 288.981 119.861 289.435 119.702C289.911 119.543 290.149 119.226 290.149 118.75V112.426C290.149 111.383 289.809 110.635 289.129 110.182C288.471 109.706 287.531 109.468 286.307 109.468C285.309 109.468 284.301 109.649 283.281 110.012C282.283 110.352 281.467 110.771 280.833 111.27V106.782C281.422 106.419 282.329 106.079 283.553 105.762C284.799 105.445 286.193 105.286 287.735 105.286C288.279 105.286 288.879 105.331 289.537 105.422C290.194 105.513 290.851 105.683 291.509 105.932C292.166 106.159 292.767 106.499 293.311 106.952C293.877 107.405 294.331 107.983 294.671 108.686C295.011 109.389 295.181 110.261 295.181 111.304L295.147 119.43C295.147 120.405 294.818 121.198 294.161 121.81C293.503 122.399 292.551 122.83 291.305 123.102C290.081 123.374 288.596 123.51 286.851 123.51ZM304.71 123H299.678V99.302H304.71V123ZM312.947 129.664C312.38 129.664 311.825 129.607 311.281 129.494C310.737 129.381 310.272 129.233 309.887 129.052V124.938C310.25 125.074 310.59 125.165 310.907 125.21C311.224 125.278 311.553 125.312 311.893 125.312C312.46 125.312 312.947 125.176 313.355 124.904C313.786 124.655 314.137 124.213 314.409 123.578C314.681 122.966 314.896 122.127 315.055 121.062L315.157 123.952L307.779 105.796H313.593L317.503 117.866H316.993L320.869 105.796H326.309L319.543 123.272C318.931 124.859 318.262 126.117 317.537 127.046C316.834 127.975 316.098 128.644 315.327 129.052C314.556 129.46 313.763 129.664 312.947 129.664ZM336.399 123.68C334.405 123.68 332.92 123.215 331.945 122.286C330.971 121.334 330.483 119.997 330.483 118.274V109.672H327.967V105.796H330.483V101.07H335.787V105.796H339.561V109.672H335.787V117.628C335.787 118.217 335.912 118.659 336.161 118.954C336.411 119.226 336.83 119.362 337.419 119.362C337.759 119.362 338.133 119.294 338.541 119.158C338.949 119.022 339.289 118.852 339.561 118.648V123C339.085 123.249 338.564 123.419 337.997 123.51C337.453 123.623 336.921 123.68 336.399 123.68ZM343.508 123V106.034H348.574L348.608 123H343.508ZM343.406 103.45V99.54H348.642V103.45H343.406ZM361.193 123.442C359.969 123.442 358.813 123.261 357.725 122.898C356.637 122.535 355.673 121.991 354.835 121.266C353.996 120.541 353.339 119.623 352.863 118.512C352.387 117.401 352.149 116.109 352.149 114.636C352.149 113.072 352.375 111.712 352.829 110.556C353.282 109.377 353.905 108.403 354.699 107.632C355.515 106.861 356.467 106.283 357.555 105.898C358.643 105.513 359.844 105.32 361.159 105.32C362.088 105.32 363.04 105.422 364.015 105.626C365.012 105.807 365.885 106.068 366.633 106.408V110.76C365.839 110.397 365.057 110.103 364.287 109.876C363.539 109.627 362.768 109.502 361.975 109.502C360.547 109.502 359.391 109.865 358.507 110.59C357.645 111.293 357.215 112.449 357.215 114.058C357.215 115.758 357.6 117.039 358.371 117.9C359.141 118.761 360.422 119.192 362.213 119.192C363.051 119.192 363.856 119.045 364.627 118.75C365.42 118.455 366.1 118.149 366.667 117.832V122.15C365.873 122.558 365.046 122.875 364.185 123.102C363.323 123.329 362.326 123.442 361.193 123.442ZM375.301 123.51C374.077 123.51 373.023 123.374 372.139 123.102C371.278 122.853 370.462 122.569 369.691 122.252V117.798C370.167 118.115 370.7 118.444 371.289 118.784C371.878 119.101 372.524 119.362 373.227 119.566C373.952 119.77 374.712 119.872 375.505 119.872C376.321 119.872 376.888 119.736 377.205 119.464C377.545 119.169 377.715 118.818 377.715 118.41C377.715 118.025 377.545 117.719 377.205 117.492C376.865 117.243 376.423 117.039 375.879 116.88C375.335 116.721 374.757 116.574 374.145 116.438C373.601 116.325 373.057 116.155 372.513 115.928C371.969 115.679 371.482 115.35 371.051 114.942C370.62 114.534 370.269 114.035 369.997 113.446C369.748 112.834 369.623 112.097 369.623 111.236C369.623 110.125 369.838 109.207 370.269 108.482C370.7 107.734 371.266 107.133 371.969 106.68C372.672 106.227 373.431 105.909 374.247 105.728C375.063 105.524 375.856 105.433 376.627 105.456C378.032 105.501 379.143 105.66 379.959 105.932C380.798 106.181 381.557 106.51 382.237 106.918V110.896C381.466 110.465 380.696 110.069 379.925 109.706C379.177 109.321 378.316 109.128 377.341 109.128C376.457 109.128 375.822 109.264 375.437 109.536C375.052 109.808 374.859 110.171 374.859 110.624C374.859 111.055 374.984 111.395 375.233 111.644C375.505 111.893 375.856 112.097 376.287 112.256C376.718 112.392 377.194 112.528 377.715 112.664C378.282 112.8 378.86 112.97 379.449 113.174C380.061 113.355 380.628 113.627 381.149 113.99C381.693 114.33 382.124 114.817 382.441 115.452C382.781 116.064 382.951 116.88 382.951 117.9C382.928 119.283 382.554 120.393 381.829 121.232C381.104 122.048 380.163 122.637 379.007 123C377.874 123.34 376.638 123.51 375.301 123.51Z" fill="#014AD4"/>
<path d="M81.096 149V139.416H77.32V138.328H86.008V139.416H82.248V149H81.096ZM86.4831 149V141.656C86.6111 141.603 86.8565 141.512 87.2191 141.384C87.5925 141.256 88.0351 141.139 88.5471 141.032C89.0698 140.925 89.6085 140.872 90.1631 140.872C90.2485 140.872 90.3338 140.883 90.4191 140.904C90.5045 140.925 90.5898 140.947 90.6751 140.968V141.992C90.3978 141.96 90.1258 141.944 89.8591 141.944C89.6031 141.944 89.3525 141.96 89.1071 141.992C88.8618 142.013 88.6165 142.045 88.3711 142.088C88.1258 142.131 87.8805 142.173 87.6351 142.216V149H86.4831ZM95.2664 149.24C94.9144 149.24 94.557 149.203 94.1944 149.128C93.8424 149.053 93.5117 148.925 93.2024 148.744C92.9037 148.563 92.6584 148.317 92.4664 148.008C92.285 147.688 92.1944 147.288 92.1944 146.808C92.1944 146.147 92.317 145.619 92.5624 145.224C92.8184 144.819 93.165 144.531 93.6024 144.36C94.0504 144.179 94.5624 144.088 95.1384 144.088C95.5757 144.088 95.9544 144.115 96.2744 144.168C96.5944 144.221 96.877 144.301 97.1224 144.408C97.3784 144.504 97.6077 144.616 97.8104 144.744L98.0344 145.8C97.789 145.619 97.4317 145.464 96.9624 145.336C96.5037 145.197 95.997 145.128 95.4424 145.128C94.7704 145.128 94.253 145.256 93.8904 145.512C93.5277 145.768 93.3464 146.141 93.3464 146.632C93.3464 147.027 93.453 147.341 93.6664 147.576C93.8904 147.811 94.1677 147.976 94.4984 148.072C94.8397 148.168 95.1864 148.216 95.5384 148.216C96.2317 148.216 96.7544 148.168 97.1064 148.072C97.469 147.965 97.6504 147.731 97.6504 147.368V143.704C97.6504 143.085 97.469 142.632 97.1064 142.344C96.7437 142.056 96.2264 141.912 95.5544 141.912C95.1277 141.912 94.6744 141.976 94.1944 142.104C93.725 142.221 93.3197 142.413 92.9784 142.68V141.528C93.309 141.315 93.7517 141.155 94.3064 141.048C94.861 140.931 95.3997 140.872 95.9224 140.872C96.2744 140.872 96.5997 140.909 96.8984 140.984C97.197 141.048 97.4637 141.149 97.6984 141.288C97.933 141.416 98.1304 141.587 98.2904 141.8C98.461 142.003 98.589 142.243 98.6744 142.52C98.7704 142.787 98.8184 143.091 98.8184 143.432V147.304C98.8184 147.869 98.6477 148.291 98.3064 148.568C97.9757 148.845 97.5384 149.027 96.9944 149.112C96.461 149.197 95.885 149.24 95.2664 149.24ZM101.374 141.656C101.63 141.528 101.891 141.416 102.158 141.32C102.435 141.213 102.712 141.128 102.99 141.064C103.278 141 103.566 140.952 103.854 140.92C104.152 140.888 104.451 140.872 104.75 140.872C105.528 140.872 106.147 140.989 106.606 141.224C107.064 141.448 107.395 141.779 107.598 142.216C107.811 142.653 107.918 143.181 107.918 143.8V149H106.766V143.8C106.766 143.608 106.739 143.405 106.686 143.192C106.643 142.979 106.552 142.776 106.414 142.584C106.275 142.381 106.062 142.221 105.774 142.104C105.486 141.976 105.102 141.912 104.622 141.912C104.291 141.912 103.95 141.939 103.598 141.992C103.246 142.045 102.888 142.125 102.526 142.232V149H101.374V141.656ZM112.739 149.24C112.163 149.24 111.678 149.181 111.283 149.064C110.899 148.947 110.499 148.781 110.083 148.568V147.352C110.414 147.533 110.707 147.688 110.963 147.816C111.219 147.944 111.48 148.04 111.747 148.104C112.014 148.157 112.318 148.184 112.659 148.184C113.192 148.184 113.624 148.067 113.955 147.832C114.296 147.597 114.467 147.293 114.467 146.92C114.467 146.621 114.382 146.392 114.211 146.232C114.051 146.072 113.843 145.939 113.587 145.832C113.331 145.725 113.064 145.613 112.787 145.496C112.478 145.411 112.163 145.32 111.843 145.224C111.534 145.117 111.246 144.984 110.979 144.824C110.723 144.653 110.515 144.44 110.355 144.184C110.195 143.917 110.115 143.576 110.115 143.16C110.115 142.755 110.195 142.408 110.355 142.12C110.526 141.832 110.744 141.597 111.011 141.416C111.278 141.224 111.576 141.085 111.907 141C112.238 140.915 112.568 140.872 112.899 140.872C113.379 140.872 113.79 140.936 114.131 141.064C114.472 141.192 114.824 141.336 115.187 141.496V142.648C114.782 142.435 114.419 142.264 114.099 142.136C113.779 141.997 113.4 141.928 112.963 141.928C112.526 141.928 112.131 142.019 111.779 142.2C111.438 142.371 111.267 142.637 111.267 143C111.267 143.299 111.352 143.539 111.523 143.72C111.704 143.891 111.939 144.029 112.227 144.136C112.515 144.232 112.824 144.328 113.155 144.424C113.422 144.509 113.699 144.605 113.987 144.712C114.275 144.808 114.542 144.941 114.787 145.112C115.032 145.272 115.23 145.485 115.379 145.752C115.539 146.019 115.619 146.36 115.619 146.776C115.619 147.341 115.475 147.811 115.187 148.184C114.899 148.547 114.531 148.813 114.083 148.984C113.646 149.155 113.198 149.24 112.739 149.24ZM118.516 149V142.072H117.14V141.016H118.516V140.584C118.516 139.997 118.58 139.523 118.708 139.16C118.847 138.787 119.023 138.499 119.236 138.296C119.449 138.083 119.673 137.933 119.908 137.848C120.143 137.752 120.367 137.699 120.58 137.688C120.793 137.667 120.964 137.656 121.092 137.656C121.241 137.656 121.38 137.667 121.508 137.688C121.636 137.699 121.753 137.72 121.86 137.752V138.776C121.785 138.755 121.7 138.739 121.604 138.728C121.508 138.717 121.401 138.712 121.284 138.712C121.103 138.712 120.916 138.723 120.724 138.744C120.532 138.765 120.356 138.835 120.196 138.952C120.036 139.059 119.908 139.24 119.812 139.496C119.716 139.741 119.668 140.099 119.668 140.568V141.016H121.86V142.072H119.668V149H118.516ZM126.498 149.24C125.25 149.24 124.322 148.872 123.714 148.136C123.116 147.389 122.818 146.355 122.818 145.032C122.818 143.645 123.132 142.605 123.762 141.912C124.402 141.219 125.303 140.872 126.466 140.872C127.33 140.872 128.034 141.048 128.578 141.4C129.122 141.741 129.522 142.227 129.778 142.856C130.034 143.475 130.161 144.2 130.161 145.032C130.161 146.344 129.842 147.373 129.202 148.12C128.572 148.867 127.671 149.24 126.498 149.24ZM126.482 148.184C127.132 148.184 127.639 148.045 128.002 147.768C128.364 147.48 128.62 147.101 128.77 146.632C128.93 146.152 129.01 145.619 129.01 145.032C129.01 144.403 128.93 143.859 128.77 143.4C128.61 142.931 128.343 142.568 127.97 142.312C127.607 142.056 127.111 141.928 126.482 141.928C125.842 141.928 125.34 142.067 124.978 142.344C124.615 142.621 124.354 142.995 124.194 143.464C124.044 143.923 123.97 144.445 123.97 145.032C123.97 145.971 124.156 146.733 124.53 147.32C124.903 147.896 125.554 148.184 126.482 148.184ZM132.327 149V141.656C132.455 141.603 132.7 141.512 133.063 141.384C133.436 141.256 133.879 141.139 134.391 141.032C134.914 140.925 135.452 140.872 136.007 140.872C136.092 140.872 136.178 140.883 136.263 140.904C136.348 140.925 136.434 140.947 136.519 140.968V141.992C136.242 141.96 135.97 141.944 135.703 141.944C135.447 141.944 135.196 141.96 134.951 141.992C134.706 142.013 134.46 142.045 134.215 142.088C133.97 142.131 133.724 142.173 133.479 142.216V149H132.327ZM144.902 143.8V149H143.75V143.8C143.75 143.608 143.723 143.405 143.67 143.192C143.627 142.979 143.537 142.776 143.398 142.584C143.259 142.381 143.046 142.221 142.758 142.104C142.47 141.976 142.086 141.912 141.606 141.912C141.275 141.912 140.934 141.939 140.582 141.992C140.23 142.045 139.873 142.125 139.51 142.232V149H138.358V141.656C138.614 141.528 138.875 141.416 139.142 141.32C139.419 141.213 139.697 141.128 139.974 141.064C140.262 141 140.55 140.952 140.838 140.92C141.137 140.888 141.435 140.872 141.734 140.872C142.513 140.872 143.131 140.989 143.59 141.224C144.049 141.448 144.379 141.779 144.582 142.216C144.795 142.653 144.902 143.181 144.902 143.8ZM143.382 141.976C143.734 141.709 144.091 141.496 144.454 141.336C144.817 141.176 145.19 141.059 145.574 140.984C145.969 140.909 146.363 140.872 146.758 140.872C147.537 140.872 148.155 140.989 148.614 141.224C149.073 141.448 149.403 141.779 149.606 142.216C149.819 142.653 149.926 143.181 149.926 143.8V149H148.774V143.8C148.774 143.608 148.747 143.405 148.694 143.192C148.651 142.979 148.561 142.776 148.422 142.584C148.283 142.381 148.07 142.221 147.782 142.104C147.494 141.976 147.11 141.912 146.63 141.912C146.299 141.912 145.958 141.96 145.606 142.056C145.254 142.152 144.897 142.317 144.534 142.552L143.382 141.976ZM157.204 149V138.328H160.548C162.212 138.328 163.46 138.776 164.292 139.672C165.134 140.557 165.556 141.885 165.556 143.656C165.556 145.427 165.134 146.76 164.292 147.656C163.46 148.552 162.212 149 160.548 149H157.204ZM158.356 147.912H160.468C161.833 147.912 162.825 147.571 163.444 146.888C164.062 146.205 164.372 145.128 164.372 143.656C164.372 142.184 164.062 141.107 163.444 140.424C162.825 139.741 161.833 139.4 160.468 139.4H158.356V147.912ZM170.548 149.24C170.196 149.24 169.838 149.203 169.476 149.128C169.124 149.053 168.793 148.925 168.484 148.744C168.185 148.563 167.94 148.317 167.748 148.008C167.566 147.688 167.476 147.288 167.476 146.808C167.476 146.147 167.598 145.619 167.844 145.224C168.1 144.819 168.446 144.531 168.884 144.36C169.332 144.179 169.844 144.088 170.42 144.088C170.857 144.088 171.236 144.115 171.556 144.168C171.876 144.221 172.158 144.301 172.404 144.408C172.66 144.504 172.889 144.616 173.092 144.744L173.316 145.8C173.07 145.619 172.713 145.464 172.244 145.336C171.785 145.197 171.278 145.128 170.724 145.128C170.052 145.128 169.534 145.256 169.172 145.512C168.809 145.768 168.628 146.141 168.628 146.632C168.628 147.027 168.734 147.341 168.948 147.576C169.172 147.811 169.449 147.976 169.78 148.072C170.121 148.168 170.468 148.216 170.82 148.216C171.513 148.216 172.036 148.168 172.388 148.072C172.75 147.965 172.932 147.731 172.932 147.368V143.704C172.932 143.085 172.75 142.632 172.388 142.344C172.025 142.056 171.508 141.912 170.836 141.912C170.409 141.912 169.956 141.976 169.476 142.104C169.006 142.221 168.601 142.413 168.26 142.68V141.528C168.59 141.315 169.033 141.155 169.588 141.048C170.142 140.931 170.681 140.872 171.204 140.872C171.556 140.872 171.881 140.909 172.18 140.984C172.478 141.048 172.745 141.149 172.98 141.288C173.214 141.416 173.412 141.587 173.572 141.8C173.742 142.003 173.87 142.243 173.956 142.52C174.052 142.787 174.1 143.091 174.1 143.432V147.304C174.1 147.869 173.929 148.291 173.588 148.568C173.257 148.845 172.82 149.027 172.276 149.112C171.742 149.197 171.166 149.24 170.548 149.24ZM179.167 149.128C178.602 149.128 178.127 148.957 177.743 148.616C177.359 148.264 177.167 147.747 177.167 147.064V142.072H175.775V141.016H177.167V138.76H178.319V141.016H180.383V142.072H178.319V146.696C178.319 147.144 178.388 147.48 178.527 147.704C178.666 147.928 178.948 148.04 179.375 148.04C179.567 148.04 179.754 148.024 179.935 147.992C180.116 147.949 180.266 147.901 180.383 147.848V148.936C180.234 148.989 180.042 149.032 179.807 149.064C179.583 149.107 179.37 149.128 179.167 149.128ZM185.22 149.24C184.868 149.24 184.51 149.203 184.148 149.128C183.796 149.053 183.465 148.925 183.156 148.744C182.857 148.563 182.612 148.317 182.42 148.008C182.238 147.688 182.148 147.288 182.148 146.808C182.148 146.147 182.27 145.619 182.516 145.224C182.772 144.819 183.118 144.531 183.556 144.36C184.004 144.179 184.516 144.088 185.092 144.088C185.529 144.088 185.908 144.115 186.228 144.168C186.548 144.221 186.83 144.301 187.076 144.408C187.332 144.504 187.561 144.616 187.764 144.744L187.988 145.8C187.742 145.619 187.385 145.464 186.916 145.336C186.457 145.197 185.95 145.128 185.396 145.128C184.724 145.128 184.206 145.256 183.844 145.512C183.481 145.768 183.299 146.141 183.299 146.632C183.299 147.027 183.406 147.341 183.62 147.576C183.844 147.811 184.121 147.976 184.452 148.072C184.793 148.168 185.14 148.216 185.492 148.216C186.185 148.216 186.708 148.168 187.06 148.072C187.422 147.965 187.604 147.731 187.604 147.368V143.704C187.604 143.085 187.422 142.632 187.06 142.344C186.697 142.056 186.18 141.912 185.508 141.912C185.081 141.912 184.628 141.976 184.148 142.104C183.678 142.221 183.273 142.413 182.932 142.68V141.528C183.262 141.315 183.705 141.155 184.26 141.048C184.814 140.931 185.353 140.872 185.876 140.872C186.228 140.872 186.553 140.909 186.852 140.984C187.15 141.048 187.417 141.149 187.652 141.288C187.886 141.416 188.084 141.587 188.244 141.8C188.414 142.003 188.542 142.243 188.628 142.52C188.724 142.787 188.772 143.091 188.772 143.432V147.304C188.772 147.869 188.601 148.291 188.26 148.568C187.929 148.845 187.492 149.027 186.948 149.112C186.414 149.197 185.838 149.24 185.22 149.24ZM196.032 149V141.016H197.184V149H196.032ZM195.968 139.592V138.328H197.248V139.592H195.968ZM199.811 141.656C200.067 141.528 200.329 141.416 200.595 141.32C200.873 141.213 201.15 141.128 201.427 141.064C201.715 141 202.003 140.952 202.291 140.92C202.59 140.888 202.889 140.872 203.187 140.872C203.966 140.872 204.585 140.989 205.043 141.224C205.502 141.448 205.833 141.779 206.035 142.216C206.249 142.653 206.355 143.181 206.355 143.8V149H205.203V143.8C205.203 143.608 205.177 143.405 205.123 143.192C205.081 142.979 204.99 142.776 204.851 142.584C204.713 142.381 204.499 142.221 204.211 142.104C203.923 141.976 203.539 141.912 203.059 141.912C202.729 141.912 202.387 141.939 202.035 141.992C201.683 142.045 201.326 142.125 200.963 142.232V149H199.811V141.656ZM211.433 149.128C210.867 149.128 210.393 148.957 210.009 148.616C209.625 148.264 209.433 147.747 209.433 147.064V142.072H208.041V141.016H209.433V138.76H210.585V141.016H212.649V142.072H210.585V146.696C210.585 147.144 210.654 147.48 210.793 147.704C210.931 147.928 211.214 148.04 211.641 148.04C211.833 148.04 212.019 148.024 212.201 147.992C212.382 147.949 212.531 147.901 212.649 147.848V148.936C212.499 148.989 212.307 149.032 212.073 149.064C211.849 149.107 211.635 149.128 211.433 149.128ZM218.013 149.24C216.765 149.24 215.837 148.872 215.229 148.136C214.632 147.389 214.333 146.355 214.333 145.032C214.333 143.645 214.648 142.605 215.277 141.912C215.917 141.219 216.818 140.872 217.981 140.872C218.845 140.872 219.549 141.048 220.093 141.4C220.637 141.741 221.037 142.227 221.293 142.856C221.549 143.475 221.677 144.2 221.677 145.032C221.677 146.344 221.357 147.373 220.717 148.12C220.088 148.867 219.186 149.24 218.013 149.24ZM217.997 148.184C218.648 148.184 219.154 148.045 219.517 147.768C219.88 147.48 220.136 147.101 220.285 146.632C220.445 146.152 220.525 145.619 220.525 145.032C220.525 144.403 220.445 143.859 220.285 143.4C220.125 142.931 219.858 142.568 219.485 142.312C219.122 142.056 218.626 141.928 217.997 141.928C217.357 141.928 216.856 142.067 216.493 142.344C216.13 142.621 215.869 142.995 215.709 143.464C215.56 143.923 215.485 144.445 215.485 145.032C215.485 145.971 215.672 146.733 216.045 147.32C216.418 147.896 217.069 148.184 217.997 148.184ZM229.587 145.592V144.088L234.771 138.328H236.243L229.587 145.592ZM228.563 149V138.328H229.715V149H228.563ZM231.379 142.984L236.611 149H235.011L230.515 143.768L231.379 142.984ZM238.296 141.656C238.552 141.528 238.813 141.416 239.08 141.32C239.357 141.213 239.634 141.128 239.912 141.064C240.2 141 240.488 140.952 240.776 140.92C241.074 140.888 241.373 140.872 241.672 140.872C242.45 140.872 243.069 140.989 243.528 141.224C243.986 141.448 244.317 141.779 244.52 142.216C244.733 142.653 244.84 143.181 244.84 143.8V149H243.688V143.8C243.688 143.608 243.661 143.405 243.608 143.192C243.565 142.979 243.474 142.776 243.336 142.584C243.197 142.381 242.984 142.221 242.696 142.104C242.408 141.976 242.024 141.912 241.544 141.912C241.213 141.912 240.872 141.939 240.52 141.992C240.168 142.045 239.81 142.125 239.448 142.232V149H238.296V141.656ZM250.685 149.24C249.437 149.24 248.509 148.872 247.901 148.136C247.304 147.389 247.005 146.355 247.005 145.032C247.005 143.645 247.32 142.605 247.949 141.912C248.589 141.219 249.49 140.872 250.653 140.872C251.517 140.872 252.221 141.048 252.765 141.4C253.309 141.741 253.709 142.227 253.965 142.856C254.221 143.475 254.349 144.2 254.349 145.032C254.349 146.344 254.029 147.373 253.389 148.12C252.76 148.867 251.858 149.24 250.685 149.24ZM250.669 148.184C251.32 148.184 251.826 148.045 252.189 147.768C252.552 147.48 252.808 147.101 252.957 146.632C253.117 146.152 253.197 145.619 253.197 145.032C253.197 144.403 253.117 143.859 252.957 143.4C252.797 142.931 252.53 142.568 252.157 142.312C251.794 142.056 251.298 141.928 250.669 141.928C250.029 141.928 249.528 142.067 249.165 142.344C248.802 142.621 248.541 142.995 248.381 143.464C248.232 143.923 248.157 144.445 248.157 145.032C248.157 145.971 248.344 146.733 248.717 147.32C249.09 147.896 249.741 148.184 250.669 148.184ZM258.044 149L255.388 141.016H256.604L258.828 148.136L258.524 148.264L260.636 141.016H261.74L263.868 148.072H263.644L265.868 141.016H267.004L264.348 149H263.18L261.052 141.928L261.26 142.12L259.212 149H258.044ZM269.995 149H268.843V137.976H269.995V149ZM275.857 149.24C275.1 149.24 274.444 149.085 273.889 148.776C273.335 148.456 272.908 147.981 272.609 147.352C272.311 146.723 272.161 145.939 272.161 145C272.161 143.624 272.471 142.595 273.089 141.912C273.719 141.219 274.577 140.872 275.665 140.872C276.519 140.872 277.201 141.064 277.713 141.448C278.236 141.832 278.609 142.349 278.833 143C279.057 143.651 279.164 144.387 279.153 145.208H272.737L272.817 144.152H278.401L277.953 144.312C277.921 143.512 277.719 142.915 277.345 142.52C276.983 142.125 276.423 141.928 275.665 141.928C275.143 141.928 274.705 142.024 274.353 142.216C274.012 142.408 273.756 142.744 273.585 143.224C273.415 143.693 273.329 144.355 273.329 145.208C273.329 146.179 273.553 146.92 274.001 147.432C274.46 147.933 275.1 148.184 275.921 148.184C276.316 148.184 276.679 148.157 277.009 148.104C277.34 148.04 277.644 147.955 277.921 147.848C278.199 147.741 278.444 147.624 278.657 147.496V148.68C278.273 148.861 277.847 149 277.377 149.096C276.919 149.192 276.412 149.24 275.857 149.24ZM284.623 149.24C284.239 149.24 283.834 149.181 283.407 149.064C282.981 148.957 282.575 148.755 282.191 148.456C281.818 148.147 281.509 147.709 281.263 147.144C281.029 146.568 280.911 145.821 280.911 144.904C280.911 143.667 281.21 142.691 281.807 141.976C282.415 141.251 283.333 140.888 284.559 140.888C284.794 140.888 285.071 140.92 285.391 140.984C285.711 141.048 286.026 141.128 286.335 141.224C286.645 141.32 286.901 141.421 287.103 141.528L286.703 141.928V137.64H287.855V147.624C287.855 147.923 287.749 148.179 287.535 148.392C287.333 148.595 287.066 148.76 286.735 148.888C286.405 149.005 286.053 149.091 285.679 149.144C285.306 149.208 284.954 149.24 284.623 149.24ZM284.639 148.184C285.194 148.184 285.674 148.12 286.079 147.992C286.495 147.864 286.703 147.704 286.703 147.512V142.504C286.373 142.312 286.015 142.173 285.631 142.088C285.258 141.992 284.901 141.944 284.559 141.944C283.983 141.944 283.514 142.072 283.151 142.328C282.799 142.573 282.538 142.92 282.367 143.368C282.207 143.805 282.127 144.317 282.127 144.904C282.127 145.48 282.191 146.019 282.319 146.52C282.447 147.011 282.693 147.411 283.055 147.72C283.418 148.029 283.946 148.184 284.639 148.184ZM293.669 149.24C292.847 149.24 292.165 149.08 291.621 148.76C291.087 148.429 290.687 147.965 290.421 147.368C290.154 146.76 290.021 146.045 290.021 145.224C290.021 144.307 290.143 143.565 290.389 143C290.634 142.424 290.949 141.987 291.333 141.688C291.727 141.379 292.154 141.171 292.613 141.064C293.082 140.947 293.535 140.888 293.973 140.888C294.474 140.888 294.949 140.957 295.397 141.096C295.855 141.224 296.229 141.432 296.517 141.72C296.815 142.008 296.965 142.392 296.965 142.872V149.336C296.965 149.656 296.917 149.981 296.821 150.312C296.725 150.643 296.549 150.947 296.293 151.224C296.047 151.512 295.695 151.741 295.237 151.912C294.789 152.083 294.207 152.168 293.493 152.168C293.034 152.168 292.613 152.125 292.229 152.04C291.845 151.955 291.509 151.875 291.221 151.8V150.712C291.391 150.755 291.583 150.803 291.797 150.856C292.021 150.92 292.261 150.973 292.517 151.016C292.783 151.059 293.066 151.08 293.365 151.08C294.09 151.08 294.623 150.989 294.965 150.808C295.317 150.637 295.546 150.419 295.653 150.152C295.759 149.896 295.813 149.635 295.813 149.368V148.2L296.213 148.6C296.01 148.707 295.754 148.808 295.445 148.904C295.135 149 294.821 149.08 294.501 149.144C294.181 149.208 293.903 149.24 293.669 149.24ZM293.669 148.184C294.01 148.184 294.367 148.141 294.741 148.056C295.125 147.96 295.482 147.816 295.813 147.624V143.032C295.813 142.733 295.727 142.509 295.557 142.36C295.397 142.2 295.178 142.093 294.901 142.04C294.623 141.976 294.325 141.944 294.005 141.944C293.226 141.944 292.639 142.099 292.245 142.408C291.85 142.707 291.583 143.107 291.445 143.608C291.306 144.109 291.237 144.648 291.237 145.224C291.237 146.099 291.423 146.813 291.797 147.368C292.17 147.912 292.794 148.184 293.669 148.184ZM302.826 149.24C302.069 149.24 301.413 149.085 300.858 148.776C300.303 148.456 299.877 147.981 299.578 147.352C299.279 146.723 299.13 145.939 299.13 145C299.13 143.624 299.439 142.595 300.058 141.912C300.687 141.219 301.546 140.872 302.634 140.872C303.487 140.872 304.17 141.064 304.682 141.448C305.205 141.832 305.578 142.349 305.802 143C306.026 143.651 306.133 144.387 306.122 145.208H299.706L299.786 144.152H305.37L304.922 144.312C304.89 143.512 304.687 142.915 304.314 142.52C303.951 142.125 303.391 141.928 302.634 141.928C302.111 141.928 301.674 142.024 301.322 142.216C300.981 142.408 300.725 142.744 300.554 143.224C300.383 143.693 300.298 144.355 300.298 145.208C300.298 146.179 300.522 146.92 300.97 147.432C301.429 147.933 302.069 148.184 302.89 148.184C303.285 148.184 303.647 148.157 303.978 148.104C304.309 148.04 304.613 147.955 304.89 147.848C305.167 147.741 305.413 147.624 305.626 147.496V148.68C305.242 148.861 304.815 149 304.346 149.096C303.887 149.192 303.381 149.24 302.826 149.24Z" fill="#014AD4"/>
</svg>
